<svg width="91" height="82" xmlns="http://www.w3.org/2000/svg">
 <defs>
  <clipPath id="clip0">
   <rect id="svg_1" fill="white" height="91" width="91"/>
  </clipPath>
 </defs>
 <g>
  <title>background</title>
  <rect fill="none" id="canvas_background" height="84" width="93" y="-1" x="-1"/>
 </g>
 <g>
  <title>Layer 1</title>
  <g id="svg_2" clip-path="url(#clip0)">
   <path id="svg_3" fill="#2F80ED" d="m89.667,79.3265l-26.4186,0c5.162,-3.1777 8.6111,-8.8805 8.6111,-15.3748l0,-0.9102l0.9672,0c4.2753,0 7.7536,-3.4783 7.7536,-7.7536l0,-2.2259c0,-3.1395 -2.5542,-5.693 -5.693,-5.693c-1.1123,0 -2.1502,0.3214 -3.0278,0.8748l0,-1.978c0,-1.8996 -1.0921,-3.595 -2.8,-4.3871c-0.0187,-0.0146 -0.0368,-0.0306 -0.0562,-0.0445l-20.9859,-15.3914l-3.9261,-3.6935c-0.3013,-0.2833 -0.6227,-0.5443 -0.9588,-0.7859c0.6519,-0.402 1.2247,-0.9477 1.6698,-1.6177l1.9148,-2.8812c0.5915,-0.8922 0.9039,-1.9259 0.9039,-2.9903c0,-1.8162 -0.9025,-3.5019 -2.4147,-4.50858c-2.4848,-1.6489 -5.8486,-0.97059 -7.4988,1.51218l-1.9142,2.8798c-0.6637,0.9991 -0.956,2.1543 -0.8942,3.2888c-0.6234,-0.066 -1.2601,-0.009 -1.869,0.1763c-1.2038,0.368 -2.2189,1.2115 -2.8007,2.3252l-0.3596,0.5123c-0.4235,0.602 -0.2784,1.4337 0.3242,1.8572c0.602,0.4235 1.4337,0.2784 1.8572,-0.3242l0.4145,-0.5894c0.0396,-0.0563 0.075,-0.116 0.1048,-0.1778c0.2527,-0.5124 0.6922,-0.8859 1.2379,-1.0525c0.5457,-0.1666 1.1192,-0.1021 1.6142,0.1819l1.1539,0.6616c0.0069,0.0042 0.0139,0.0077 0.0201,0.0118l4.4059,2.5265c0.4554,0.2618 0.8796,0.5763 1.2622,0.9366l3.3263,3.1284l-1.5976,4.0434l-4.603,-2.4598l-1.7468,-1.0851c-0.6263,-0.3888 -1.4476,-0.1965 -1.8364,0.4283c-0.3881,0.6256 -0.1965,1.4476 0.4291,1.8364l0.7505,0.4659l-4.4753,8.9054l-9.8566,-4.3933l5.9319,-8.439c0.4235,-0.6026 0.2784,-1.4336 -0.3243,-1.8571c-0.6019,-0.4235 -1.4336,-0.2784 -1.8571,0.3235l-6.863,9.7643c-0.0062,0.0097 -0.0118,0.0194 -0.018,0.0291c-0.0167,0.025 -0.0333,0.0507 -0.0479,0.0771c-0.0104,0.0174 -0.0194,0.0347 -0.0278,0.0528c-0.0076,0.0138 -0.0153,0.0263 -0.0222,0.0409l-0.7984,1.6996c-1.1713,2.4918 -1.1976,5.3626 -0.0736,7.8766c0.5096,1.1393 1.233,2.1501 2.1161,2.9895c-0.193,0.4922 -0.1756,1.0532 0.0729,1.5455l2.5092,4.9363l-9.2631,19.005c-0.8865,1.8183 -0.7762,3.9289 0.2965,5.6452c0.016,0.0257 0.034,0.05 0.0507,0.0757l-13.00379,0c-0.73593,0 -1.33301,0.5963 -1.33301,1.333c0,0.7359 0.59708,1.333 1.33301,1.333l88.33399,0c0.7359,0 1.333,-0.5971 1.333,-1.333c0,-0.7367 -0.5971,-1.333 -1.333,-1.333zm-17.8068,-26.2645c0,-1.669 1.3573,-3.027 3.0264,-3.027c1.669,0 3.027,1.358 3.027,3.027l0,2.2259c0,2.8049 -2.2821,5.0869 -5.0869,5.0869l-0.9665,0l0,-7.3128zm-33.8459,-37.2284l1.9134,-2.8805c0.5284,-0.7936 1.4011,-1.2233 2.2898,-1.2233c0.5207,0 1.0469,0.1479 1.5121,0.4561c0.7672,0.5103 1.2247,1.3657 1.2247,2.2883c0,0.5381 -0.159,1.063 -0.4589,1.515l-1.9141,2.8805c-0.5881,0.8852 -1.6128,1.342 -2.6515,1.1976l-1.7954,-1.0303c-0.7213,-0.9234 -0.7782,-2.2133 -0.1201,-3.2034zm6.1846,61.4774l4.1573,0l2.1231,2.0148l-6.2804,0l0,-2.0148zm23.5478,-31.2375c0.5033,-0.0271 0.9636,-0.2062 1.3337,-0.4999c0.0729,0.2194 0.1131,0.452 0.1131,0.6922l0,17.6859c0,8.3029 -6.6157,15.088 -14.8512,15.3643l-4.1914,-3.9781l-0.9247,-7.2566l0.9178,0c4.8433,0 9.1325,-2.4036 11.7471,-6.0777l0,0.9227c0,0.7359 0.5971,1.333 1.333,1.333c0.7367,0 1.3331,-0.5971 1.3331,-1.333l0,-9.2589c0,-0.0013 0,-0.0027 0,-0.0034l0,-7.3982c0,-0.1291 0.0124,-0.2569 0.0347,-0.3819c0.6102,0.1639 1.2406,0.2486 1.8801,0.2486c0.1333,0 0.2666,-0.0035 0.4006,-0.0111l0.8741,-0.0479zm-3.6755,-3.2819c-0.0181,-0.0111 -0.0361,-0.0215 -0.0549,-0.0319l-17.6596,-9.622l1.4108,-3.5713l18.9433,13.8931c-0.9303,0.0465 -1.8426,-0.1833 -2.6396,-0.6679zm-43.0305,-4.4051l0.243,-0.5159l1.5038,0.6721l9.792,4.3614l0.0091,0.0042l11.2264,5.0001c0.1,0.0452 0.1708,0.1403 0.1847,0.2493l1.3135,10.3072c0.0931,0.7304 0.7596,1.2476 1.4906,1.1539c0.7304,-0.0931 1.2477,-0.761 1.1539,-1.4913l-1.3128,-10.3072c-0.1313,-1.0269 -0.7998,-1.926 -1.7454,-2.3474l-9.9497,-4.4315l4.3524,-8.6618l4.7495,2.539l18.0755,9.8482c-0.1555,0.4791 -0.2361,0.9831 -0.2361,1.499l0,7.401c0,6.4775 -5.2695,11.7478 -11.7464,11.7478l-1.258,0l-0.2826,-2.2161c-0.093,-0.7304 -0.7595,-1.247 -1.4913,-1.1546c-0.7304,0.093 -1.2469,0.7609 -1.1539,1.4913l0.4249,3.3346c0.0021,0.0194 0.0049,0.0382 0.007,0.0576l0.9837,7.7169l-3.5276,0l-6.7844,-21.8225c-0.2902,-0.9338 -1.0213,-1.6662 -1.9544,-1.9599l-9.27,-2.9118c-0.0062,-0.0021 -0.0118,-0.0035 -0.0173,-0.0056l-0.5839,-0.1742c-1.8933,-0.5665 -3.4422,-1.9259 -4.249,-3.7297c-0.8067,-1.8044 -0.7873,-3.865 0.0528,-5.6541zm10.7751,18.6676l1.0526,-4.1011l1.4406,0.4534c0.0993,0.0306 0.1763,0.1083 0.2076,0.2076l3.7845,12.1727c-0.2993,0.0924 -0.5943,0.2027 -0.8838,0.3312l-8.4445,3.7713l2.843,-12.8351zm-7.3426,-6.7296l0.5748,0.1722l5.2731,1.6565l-0.7249,2.823l-3.9018,-1.4559l-1.7051,-3.3548c0.159,0.0577 0.3207,0.1104 0.4839,0.159zm-8.0869,24.4496l9.0235,-18.5135l3.5567,1.3267l-3.1693,14.3111c-0.109,0.4916 0.068,1.0025 0.4589,1.3212c0.3902,0.3187 0.9268,0.3895 1.3865,0.184l10.8591,-4.8502c0.1937,-0.0861 0.3923,-0.1555 0.5922,-0.2173l2.439,7.8439l0,3.1458l-22.3008,0c-1.099,0 -2.1029,-0.5568 -2.6848,-1.4886c-0.5824,-0.931 -0.6422,-2.0758 -0.161,-3.0631z"/>
  </g>
 </g>
</svg>