<svg width="65" height="65" viewBox="0 0 65 65" fill="none" xmlns="http://www.w3.org/2000/svg">
<g clip-path="url(#clip0)">
<path d="M62.2917 24.9892C62.3555 21.8846 61.9735 18.7868 61.1574 15.7907C60.0626 12.0667 57.7904 8.79779 54.6813 6.47399C48.5658 1.68241 42.8502 -0.303343 36.1682 0.0357404C32.6434 0.279844 29.1411 0.780588 25.6891 1.53399C20.8022 2.51657 17.2521 4.23474 14.8352 6.78707C12.9198 8.82666 11.4409 11.2357 10.4888 13.8667C10.0853 15.0259 9.75673 16.2099 9.50517 17.4113L9.41851 17.7862C9.19034 18.63 8.88236 19.4501 8.49876 20.2356C8.27559 20.7361 8.05134 21.2366 7.85742 21.7522C7.60627 22.3244 7.50594 22.9514 7.56601 23.5733C7.78642 24.5411 8.34739 25.3973 9.14659 25.9859C9.67851 26.4734 10.0273 26.8147 10.0306 27.1267C9.98823 27.2883 9.92448 27.4435 9.84101 27.5882C8.54366 30.3236 6.95341 32.9102 5.09817 35.3026C4.32034 36.2527 3.50567 37.3609 3.67142 38.4865C3.90819 39.3407 4.47223 40.0671 5.24117 40.508C5.59963 40.7548 5.97751 40.9722 6.37109 41.158C6.83801 41.3963 7.62126 41.795 7.67109 42.0821C7.7413 42.4469 7.70016 42.8243 7.55301 43.1654C7.39159 43.5034 7.22801 43.7959 7.08176 44.0505C6.68418 44.7536 6.01792 45.9322 7.02001 46.7751C7.25401 46.9809 7.65484 47.2962 8.02101 47.5767C7.75045 48.0526 7.62893 48.5987 7.67217 49.1443C7.73097 49.5684 7.96174 49.9497 8.31026 50.1984C8.55292 50.3707 8.81184 50.5234 9.06859 50.6664C9.70559 51.0293 9.95367 51.1994 10.0436 51.5331C10.102 51.9744 10.0621 52.4231 9.92659 52.8472C9.86376 53.1321 9.80309 53.4159 9.76517 53.6997C9.6554 54.6851 9.77974 55.6824 10.1281 56.6107C10.6883 58.6696 12.7632 59.9287 14.8482 59.475C17.9415 58.7291 20.9923 57.8167 23.9872 56.7417C26.4225 58.1804 27.9619 62.5322 28.3628 64.1647C28.4815 64.6493 28.9158 64.9901 29.4147 64.9902L56.6063 64.9155C56.9493 64.9144 57.2715 64.751 57.475 64.4749C57.6785 64.1988 57.7393 63.8427 57.6388 63.5148C57.3702 62.7754 56.9985 62.0777 56.5348 61.4423C56.2788 61.0748 56.0472 60.6908 55.8415 60.2929C55.3531 59.2937 54.9438 58.2578 54.6173 57.1946C53.999 55.102 53.5718 52.9576 53.3412 50.7877C52.9573 47.5483 53.4465 44.2651 54.7582 41.2782C55.56 39.6244 56.5467 38.0667 57.6994 36.6351C58.3494 35.7543 59.0287 34.8443 59.6375 33.8834C61.3471 31.2301 62.2676 28.1456 62.2917 24.9892ZM55.9607 35.3535C54.7091 36.9161 53.6398 38.6164 52.7735 40.4213C51.3076 43.7623 50.7615 47.4345 51.1918 51.0575C51.4344 53.3559 51.8862 55.6273 52.5417 57.8435C52.9007 59.0111 53.3499 60.1492 53.885 61.2473C54.1314 61.7319 54.4105 62.1992 54.7203 62.6459L54.7983 62.764L30.2337 62.8333C29.5121 60.2627 28.205 57.894 26.4149 55.913C26.6912 55.8166 26.9566 55.7267 27.196 55.64C28.0172 55.3529 28.6379 55.1352 28.9478 55.0377C33.592 53.5795 35.9147 51.4692 35.8518 48.7641C35.8167 48.175 35.3326 47.7131 34.7425 47.7057C34.4552 47.7125 34.1823 47.8332 33.984 48.0413C33.7857 48.2493 33.6782 48.5277 33.6852 48.815C33.7112 49.9308 32.7979 51.558 28.2967 52.9707C27.9717 53.0725 27.3314 53.2957 26.4788 53.5957C25.7064 53.8666 24.7585 54.1981 23.7218 54.5523C20.6701 55.656 17.5611 56.5941 14.4083 57.3625C13.3933 57.5581 12.4054 56.9158 12.1723 55.9087C11.9384 55.3005 11.849 54.6463 11.9113 53.9977C11.9405 53.7734 11.9914 53.5492 12.0413 53.3238C12.2635 52.572 12.2985 51.7772 12.1431 51.0087C11.8321 50.0141 11.1026 49.2046 10.1454 48.7922L9.91359 48.659C10.0296 48.4224 10.1686 48.1978 10.3285 47.9884C10.5087 47.7583 10.5883 47.465 10.5491 47.1754C10.51 46.8857 10.3554 46.6241 10.1205 46.4501C9.86051 46.2572 9.24084 45.7936 8.79667 45.4372C8.85192 45.3364 8.91367 45.2205 8.97109 45.1241C9.13792 44.8305 9.32751 44.4914 9.51276 44.1047C9.85925 43.3471 9.9611 42.5004 9.80417 41.6823C9.55176 40.3531 8.28751 39.7052 7.35476 39.2329C7.04028 39.0839 6.73879 38.9088 6.45342 38.7097C6.22888 38.5534 6.01598 38.3811 5.81642 38.194C5.81642 38.0315 5.98976 37.635 6.82284 36.6177C8.75849 34.122 10.4181 31.4239 11.7726 28.5707C12.0334 28.1241 12.1793 27.6197 12.1973 27.1028C12.0868 26.0123 11.5076 25.0238 10.6102 24.3945C10.1768 23.9937 9.75867 23.6145 9.71209 23.2808C9.71639 23.0187 9.77543 22.7604 9.88542 22.5225C10.0631 22.0523 10.27 21.5908 10.4769 21.1293C10.9186 20.218 11.2708 19.266 11.5288 18.2867L11.6166 17.9086C11.8479 16.7965 12.1504 15.7005 12.5223 14.6272C13.3714 12.2677 14.6938 10.1067 16.4082 8.27666C18.5066 6.06666 21.6829 4.54999 26.1159 3.65841C29.4635 2.92579 32.8601 2.43844 36.2787 2.20024C42.4082 1.87524 47.6699 3.73207 53.3423 8.18241C56.0985 10.2145 58.1109 13.0959 59.0698 16.3832C59.8299 19.1763 60.1852 22.0639 60.125 24.9578C60.106 27.7176 59.3023 30.415 57.8078 32.7351C57.2401 33.6256 56.5879 34.5042 55.9574 35.3535H55.9607Z" fill="#2F80ED"/>
<path d="M25.4583 18.4167H26.5417C27.14 18.4167 27.625 17.9316 27.625 17.3333C27.625 16.735 27.14 16.25 26.5417 16.25H25.4583C23.6634 16.25 22.2083 17.7051 22.2083 19.5V20.5833C22.2083 22.3782 23.6634 23.8333 25.4583 23.8333H26.5417C27.14 23.8333 27.625 23.3483 27.625 22.75C27.625 22.1517 27.14 21.6667 26.5417 21.6667H25.4583C24.86 21.6667 24.375 21.1816 24.375 20.5833V19.5C24.375 18.9017 24.86 18.4167 25.4583 18.4167Z" fill="#2F80ED"/>
<path d="M33.0417 15.1667C32.4434 15.1667 31.9584 15.6517 31.9584 16.25V18.4167C31.9584 19.015 31.4733 19.5 30.875 19.5H29.7917C29.1934 19.5 28.7083 19.985 28.7083 20.5833C28.7083 21.1816 29.1934 21.6667 29.7917 21.6667H30.875C32.6699 21.6667 34.125 20.2116 34.125 18.4167V16.25C34.125 15.6517 33.64 15.1667 33.0417 15.1667Z" fill="#2F80ED"/>
<path d="M37.375 15.1667V14.0833C37.375 12.2884 35.9199 10.8333 34.125 10.8333H31.9583C30.1634 10.8333 28.7083 12.2884 28.7083 14.0833V15.1667C28.7083 15.765 29.1934 16.25 29.7917 16.25C30.39 16.25 30.875 15.765 30.875 15.1667V14.0833C30.875 13.485 31.36 13 31.9583 13H34.125C34.7233 13 35.2084 13.485 35.2084 14.0833V15.1667C35.2084 15.765 35.6934 16.25 36.2917 16.25C36.89 16.25 37.375 15.765 37.375 15.1667Z" fill="#2F80ED"/>
<path d="M40.625 22.75H39.5417C38.9434 22.75 38.4584 22.265 38.4584 21.6667V20.5833C38.4584 19.985 37.9733 19.5 37.375 19.5C36.7767 19.5 36.2917 19.985 36.2917 20.5833V21.6667C36.2917 23.4616 37.7468 24.9167 39.5417 24.9167H40.625C41.2233 24.9167 41.7084 24.4316 41.7084 23.8333C41.7084 23.235 41.2233 22.75 40.625 22.75Z" fill="#2F80ED"/>
<path d="M46.0417 19.5C46.0417 18.9017 45.5567 18.4167 44.9583 18.4167H43.875C43.2767 18.4167 42.7917 17.9316 42.7917 17.3333C42.7917 16.735 43.2767 16.25 43.875 16.25H44.9583C45.5567 16.25 46.0417 15.765 46.0417 15.1667C46.0417 14.5683 45.5567 14.0833 44.9583 14.0833H43.875C42.0801 14.0833 40.625 15.5384 40.625 17.3333C40.625 19.1283 42.0801 20.5833 43.875 20.5833H44.9583C45.5567 20.5833 46.0417 20.0983 46.0417 19.5Z" fill="#2F80ED"/>
<path d="M49.2917 19.5C48.6934 19.5 48.2084 19.985 48.2084 20.5833V22.75C48.2084 23.3483 47.7233 23.8333 47.125 23.8333H46.0417C45.4434 23.8333 44.9583 24.3183 44.9583 24.9167C44.9583 25.515 45.4434 26 46.0417 26H47.125C48.9199 26 50.375 24.5449 50.375 22.75V20.5833C50.375 19.985 49.89 19.5 49.2917 19.5Z" fill="#2F80ED"/>
<path d="M57.915 22.75C57.915 22.7327 57.9064 22.7186 57.9053 22.7012C57.8081 20.7654 57.5001 18.8459 56.9866 16.9769C56.1493 14.1338 54.401 11.6445 52.0109 9.8919C47.111 6.04824 42.6682 4.33332 37.6014 4.33332C37.2028 4.33332 36.7998 4.34415 36.387 4.36365C36.0176 4.38315 35.6482 4.4254 35.2788 4.45574C35.2539 4.45574 35.2333 4.44165 35.2084 4.44165C35.1515 4.44793 35.0953 4.45917 35.0404 4.47524C32.1852 4.75065 29.3477 5.1872 26.5417 5.78282C25.3111 6.02519 24.1002 6.3587 22.919 6.78057C22.8941 6.79032 22.8692 6.79574 22.8454 6.80657C21.019 7.40736 19.3554 8.42042 17.9834 9.76732C16.6552 11.1937 15.5973 12.8496 14.8612 14.6542C14.828 14.7154 14.8007 14.7796 14.7799 14.846C14.7074 15.0237 14.624 15.1916 14.5568 15.3725C14.2242 16.2749 13.701 18.5217 13.6349 18.8045C13.3911 20.0167 12.7866 24.1713 15.2447 26.7778C16.8047 28.431 19.1902 29.042 22.3232 28.5978L23.7814 28.3898C30.732 27.3899 34.2204 26.8883 37.2223 29.8242C37.7997 30.3886 38.3912 30.9649 39.0065 31.525C38.3251 33.6678 37.4411 38.2417 41.0649 40.95C44.9584 43.875 44.9584 44.6669 44.9584 46.5833C44.9563 46.9598 45.1498 47.3103 45.4695 47.5092C45.7892 47.708 46.1892 47.7266 46.526 47.5583C46.8098 47.411 49.2917 46.0287 49.2917 41.1667C49.2917 38.5071 51.2742 36.2082 53.2318 34.3059L53.2643 34.2767C54.3258 33.548 55.2439 32.6299 55.9726 31.5683C56.7585 30.3294 57.3207 28.962 57.6334 27.5286C57.6974 27.3889 57.7306 27.237 57.7309 27.0833C57.8669 26.3727 57.943 25.6519 57.9584 24.9286C57.9692 24.2017 57.953 23.4812 57.914 22.7695C57.9148 22.763 57.9152 22.7565 57.915 22.75ZM47.125 41.1667C47.1434 42.0677 47.0146 42.9656 46.7437 43.8252C46.2378 42.5587 45.0656 41.2468 42.3584 39.2156C40.2058 37.6036 40.3575 34.9234 40.8222 33.0406C42.8519 34.6698 45.3697 35.5705 47.9722 35.5983C48.3942 35.5952 48.8158 35.5706 49.2354 35.5247C47.9337 37.1238 47.1924 39.1058 47.125 41.1667ZM54.145 30.4135C53.3869 31.5499 52.3145 32.4412 51.0586 32.9788C49.0703 33.6189 46.9267 33.5869 44.9584 32.8878V31.4167C44.9584 30.8183 45.4434 30.3333 46.0417 30.3333H49.2917C49.89 30.3333 50.375 29.8483 50.375 29.25C50.375 28.6517 49.89 28.1667 49.2917 28.1667H46.0417C44.2468 28.1667 42.7917 29.6217 42.7917 31.4167V31.7536C41.3366 30.7199 39.9787 29.5559 38.7346 28.2761C37.4769 27.0012 35.8752 26.12 34.125 25.74V24.9167C34.125 24.3183 33.64 23.8333 33.0417 23.8333C32.4434 23.8333 31.9584 24.3183 31.9584 24.9167V25.4757C29.1119 25.4814 26.2715 25.7391 23.4705 26.2459L22.0166 26.4528C21.363 26.5491 20.7017 26.5832 20.0417 26.5547V26C20.0417 25.4017 19.5567 24.9167 18.9584 24.9167C18.3601 24.9167 17.875 25.4017 17.875 26V26.052C17.4794 25.865 17.1209 25.6081 16.8166 25.2937C16.1957 24.5754 15.7984 23.6912 15.6737 22.75H16.7917C18.5866 22.75 20.0417 21.2949 20.0417 19.5C20.0417 18.9017 19.5567 18.4167 18.9584 18.4167C18.3601 18.4167 17.875 18.9017 17.875 19.5C17.875 20.0983 17.39 20.5833 16.7917 20.5833H15.5773C15.6067 20.1399 15.6643 19.6989 15.7495 19.2627C15.8915 18.6474 16.2912 16.9877 16.5436 16.25H20.0417C20.64 16.25 21.125 15.765 21.125 15.1667C21.125 14.5683 20.64 14.0833 20.0417 14.0833H17.5305C18.0798 13.0578 18.7597 12.1077 19.5531 11.2569C20.3202 10.4889 21.2197 9.8657 22.2084 9.4174V10.8333C22.2084 12.6282 23.6634 14.0833 25.4584 14.0833C26.0567 14.0833 26.5417 13.5983 26.5417 13C26.5417 12.4017 26.0567 11.9167 25.4584 11.9167C24.8601 11.9167 24.375 11.4316 24.375 10.8333V8.56915C25.2293 8.30259 26.0972 8.082 26.975 7.90832C27.898 7.72199 28.8427 7.54324 29.7917 7.37315V7.58332C29.7917 8.18163 30.2767 8.66665 30.875 8.66665C31.4733 8.66665 31.9584 8.18163 31.9584 7.58332V7.0124C32.6799 6.90407 33.4025 6.8044 34.125 6.72532V7.58332C34.125 8.18163 34.6101 8.66665 35.2084 8.66665C35.8067 8.66665 36.2917 8.18163 36.2917 7.58332V6.54549C36.36 6.54549 36.4293 6.53249 36.4965 6.52815C37.166 6.49999 37.817 6.49999 38.4584 6.52707V10.8333C38.4584 11.4316 38.9434 11.9167 39.5417 11.9167H41.7084C42.3067 11.9167 42.7917 11.4316 42.7917 10.8333C42.7917 10.235 42.3067 9.74999 41.7084 9.74999H40.625V6.76324C42.5205 7.08446 44.3533 7.70309 46.0558 8.59624C46.0558 8.62116 46.0417 8.64174 46.0417 8.66665V11.9167C46.0417 12.515 46.5267 13 47.125 13C47.7233 13 48.2084 12.515 48.2084 11.9167V9.84749C48.919 10.3079 49.6384 10.8106 50.375 11.3772V14.0833C50.375 14.6816 49.89 15.1667 49.2917 15.1667C48.6934 15.1667 48.2084 15.6517 48.2084 16.25C48.2084 16.8483 48.6934 17.3333 49.2917 17.3333C51.0866 17.3333 52.5417 15.8782 52.5417 14.0833V13.3412C53.6427 14.5495 54.4504 15.9953 54.9023 17.5662C55.2696 18.9085 55.5176 20.2807 55.6433 21.6667H53.625C53.0267 21.6667 52.5417 22.1517 52.5417 22.75C52.5417 23.3483 53.0267 23.8333 53.625 23.8333H55.769C55.7765 24.1876 55.7939 24.5397 55.7885 24.8972C55.783 25.2742 55.7419 25.6371 55.7007 26H53.625C53.0267 26 52.5417 26.485 52.5417 27.0833C52.5417 27.6816 53.0267 28.1667 53.625 28.1667H55.211C54.9451 28.9549 54.5873 29.709 54.145 30.4135Z" fill="#2F80ED"/>
</g>
<defs>
<clipPath id="clip0">
<rect width="65" height="65" fill="white"/>
</clipPath>
</defs>
</svg>
