<svg width="71" height="71" viewBox="0 0 71 71" fill="none" xmlns="http://www.w3.org/2000/svg">
<path d="M39.7988 40.0407L40.085 42.2395C40.5133 42.184 40.9504 42.1562 41.383 42.1562H42.1562V39.9375H41.383C40.8538 39.9375 40.3213 39.9719 39.7988 40.0407Z" fill="#2F80ED"/>
<path d="M33.8337 43.7149L33.3168 42.9916L31.5917 44.5359L33.076 46.1844L34.7035 44.7189V44.7178L34.7356 44.6901L33.8337 43.7149Z" fill="#2F80ED"/>
<path d="M35.2104 41.6104L36.332 43.5263C36.9056 43.1902 37.5146 42.9106 38.1436 42.6954L37.4248 40.5954C36.656 40.8594 35.9105 41.2011 35.2104 41.6104Z" fill="#2F80ED"/>
<path d="M18.5454 44.0311C18.3235 44.2319 18.0939 44.4194 17.8576 44.5969L19.1889 46.3719C19.4784 46.1555 19.7591 45.9248 20.0298 45.6807L21.8192 44.0699L20.3348 42.4214L18.5454 44.0311Z" fill="#2F80ED"/>
<path d="M11.867 46.5937H9.42969C7.28859 46.5937 5.54688 48.3355 5.54688 50.4766C5.54688 52.6543 7.29414 54.3594 9.52509 54.3594C9.65822 54.3594 9.79023 54.3627 9.92114 54.3705L10.0465 52.1562C9.87455 52.1462 9.70038 52.1406 9.52509 52.1406C8.53886 52.1406 7.76562 51.4095 7.76562 50.4766C7.76562 49.5591 8.51223 48.8125 9.42969 48.8125H11.867C13.7019 48.8125 15.5412 48.3898 17.1887 47.5911L16.2213 45.5953C14.8745 46.2476 13.368 46.5937 11.867 46.5937Z" fill="#2F80ED"/>
<path d="M57.788 18.024L60.2287 15.8044L61.7226 17.4471L59.282 19.6667L57.788 18.024Z" fill="#2F80ED"/>
<path d="M51.0312 32.163L53.25 32.1807C53.2822 27.913 55.0494 23.7506 58.098 20.7608L56.5448 19.1767C53.078 22.5769 51.069 27.3095 51.0312 32.163Z" fill="#2F80ED"/>
<path d="M56.6469 0.651203L46.1966 10.2307C44.0289 12.2187 41.2144 13.3125 38.2734 13.3125C34.6047 13.3125 31.3631 15.7576 30.3126 19.2188C26.899 20.2561 24.4062 23.4311 24.4062 27.1797V30.317C24.4062 31.8868 23.7362 33.3889 22.5702 34.4394L15.579 40.7329C14.5583 41.6504 13.2404 42.1562 11.8681 42.1562H9.42969C4.84131 42.1562 1.10938 45.8882 1.10938 50.4766C1.10938 55.0649 4.84131 58.7969 9.52509 58.7969C10.2406 58.7969 10.9129 59.0753 11.4188 59.5812C11.9247 60.0871 12.2031 60.7605 12.2031 61.5703C12.2031 66.1587 15.9351 69.8906 20.5234 69.8906C25.1118 69.8906 28.8438 66.1587 28.8438 61.5703V58.433C28.8438 56.8632 29.5138 55.3611 30.6798 54.3106L37.671 48.0171C38.6917 47.0996 40.0096 46.5937 41.3819 46.5937H43.8203C47.5689 46.5937 50.7428 44.1021 51.7812 40.6874C55.2413 39.6368 57.6875 36.3953 57.6875 32.7266V32.3017C57.6875 29.0057 59.0864 25.844 61.5248 23.6275L70.351 15.6034L56.6469 0.651203ZM43.8203 44.375H41.3819C39.4605 44.375 37.6156 45.0828 36.1867 46.3685L29.1954 52.662C27.5624 54.1319 26.625 56.2353 26.625 58.433V61.5703C26.625 64.9339 23.8882 67.6719 20.5234 67.6719C17.1587 67.6719 14.4219 64.9339 14.4219 61.4749C14.4219 60.1669 13.9127 58.9378 12.9886 58.0125C12.0645 57.0873 10.8342 56.5781 9.42969 56.5781C6.06495 56.5781 3.32812 53.8402 3.32812 50.4766C3.32812 47.1129 6.06495 44.375 9.42969 44.375H11.8681C13.7895 44.375 15.6344 43.6672 17.0633 42.3814L24.0546 36.088C25.6876 34.618 26.625 32.5147 26.625 30.317V27.1797C26.625 23.8161 29.3618 21.0781 32.7266 21.0781C36.0913 21.0781 38.8281 23.8161 38.8281 27.2751C38.8281 28.583 39.3373 29.8122 40.2614 30.7374C41.1855 31.6627 42.4158 32.1719 43.8203 32.1719C47.185 32.1719 49.9219 34.9098 49.9219 38.2734C49.9219 41.6371 47.185 44.375 43.8203 44.375ZM60.0327 21.9845C57.1328 24.6215 55.4688 28.3822 55.4688 32.3017V32.7266C55.4688 35.0452 54.1253 37.113 52.134 38.1381C52.0607 33.6129 48.3621 29.9531 43.7249 29.9531C43.0094 29.9531 42.3371 29.6747 41.8312 29.1688C41.3253 28.6629 41.0469 27.9895 41.0469 27.1797C41.0469 22.6379 37.387 18.9404 32.8619 18.866C33.8881 16.8747 35.9548 15.5312 38.2734 15.5312C41.7713 15.5312 45.1172 14.23 47.6954 11.8659L56.5093 3.7863L67.2104 15.4591L60.0327 21.9845Z" fill="#2F80ED"/>
</svg>
